{
	"asset":{
		"generator":"Khronos glTF Blender I/O v4.0.44",
		"version":"2.0"
	},
	"extensionsUsed":[
		"KHR_materials_specular"
	],
	"scene":0,
	"scenes":[
		{
			"name":"Scene",
			"nodes":[
				5
			]
		}
	],
	"nodes":[
		{
			"mesh":0,
			"name":"Black Pyramid",
			"scale":[
				0.04372449964284897,
				0.033721525222063065,
				0.04372449964284897
			],
			"translation":[
				0,
				0.034857045859098434,
				0
			]
		},
		{
			"mesh":1,
			"name":"Curve"
		},
		{
			"mesh":2,
			"name":"Curve.001"
		},
		{
			"mesh":3,
			"name":"Curve.002"
		},
		{
			"mesh":4,
			"name":"Curve.003"
		},
		{
			"children":[
				0,
				1,
				2,
				3,
				4
			],
			"name":"Empty",
			"scale":[
				4.766731262207031,
				4.766731262207031,
				4.766731262207031
			]
		}
	],
	"materials":[
		{
			"doubleSided":true,
			"extensions":{
				"KHR_materials_specular":{
					"specularFactor":0
				}
			},
			"name":"Material.002",
			"pbrMetallicRoughness":{
				"baseColorFactor":[
					0,
					0,
					0,
					1
				],
				"metallicFactor":0
			}
		},
		{
			"doubleSided":true,
			"name":"SVGMat.001",
			"pbrMetallicRoughness":{
				"baseColorFactor":[
					0.8000074625015259,
					0.2229127138853073,
					0.03601865842938423,
					1
				],
				"roughnessFactor":0.15758755803108215
			}
		}
	],
	"meshes":[
		{
			"name":"Cube.002",
			"primitives":[
				{
					"attributes":{
						"POSITION":0,
						"NORMAL":1,
						"TEXCOORD_0":2
					},
					"indices":3,
					"material":0
				}
			]
		},
		{
			"name":"Curve",
			"primitives":[
				{
					"attributes":{
						"POSITION":4,
						"NORMAL":5,
						"TEXCOORD_0":6
					},
					"indices":7,
					"material":1
				}
			]
		},
		{
			"name":"Curve.003",
			"primitives":[
				{
					"attributes":{
						"POSITION":8,
						"NORMAL":9,
						"TEXCOORD_0":10
					},
					"indices":11,
					"material":1
				}
			]
		},
		{
			"name":"Curve.006",
			"primitives":[
				{
					"attributes":{
						"POSITION":12,
						"NORMAL":13,
						"TEXCOORD_0":14
					},
					"indices":15,
					"material":1
				}
			]
		},
		{
			"name":"Curve.007",
			"primitives":[
				{
					"attributes":{
						"POSITION":16,
						"NORMAL":17,
						"TEXCOORD_0":18
					},
					"indices":19,
					"material":1
				}
			]
		}
	],
	"accessors":[
		{
			"bufferView":0,
			"componentType":5126,
			"count":16,
			"max":[
				1,
				1,
				1
			],
			"min":[
				-1,
				-1,
				-1
			],
			"type":"VEC3"
		},
		{
			"bufferView":1,
			"componentType":5126,
			"count":16,
			"type":"VEC3"
		},
		{
			"bufferView":2,
			"componentType":5126,
			"count":16,
			"type":"VEC2"
		},
		{
			"bufferView":3,
			"componentType":5123,
			"count":18,
			"type":"SCALAR"
		},
		{
			"bufferView":4,
			"componentType":5126,
			"count":202,
			"max":[
				0.0430091917514801,
				0.06954856961965561,
				-0.002155004069209099
			],
			"min":[
				-0.04258662462234497,
				9.342881094198674e-05,
				-0.048500098288059235
			],
			"type":"VEC3"
		},
		{
			"bufferView":5,
			"componentType":5126,
			"count":202,
			"type":"VEC3"
		},
		{
			"bufferView":6,
			"componentType":5126,
			"count":202,
			"type":"VEC2"
		},
		{
			"bufferView":7,
			"componentType":5123,
			"count":372,
			"type":"SCALAR"
		},
		{
			"bufferView":8,
			"componentType":5126,
			"count":202,
			"max":[
				0.0430091917514801,
				0.06815556436777115,
				0.04995796084403992
			],
			"min":[
				-0.04258662462234497,
				-0.0012995694996789098,
				0.003612860571593046
			],
			"type":"VEC3"
		},
		{
			"bufferView":9,
			"componentType":5126,
			"count":202,
			"type":"VEC3"
		},
		{
			"bufferView":10,
			"componentType":5126,
			"count":202,
			"type":"VEC2"
		},
		{
			"bufferView":11,
			"componentType":5123,
			"count":372,
			"type":"SCALAR"
		},
		{
			"bufferView":12,
			"componentType":5126,
			"count":202,
			"max":[
				-0.0026084203273057938,
				0.06954856961965561,
				0.04294445738196373
			],
			"min":[
				-0.04895351082086563,
				9.342881094198674e-05,
				-0.04265136271715164
			],
			"type":"VEC3"
		},
		{
			"bufferView":13,
			"componentType":5126,
			"count":202,
			"type":"VEC3"
		},
		{
			"bufferView":14,
			"componentType":5126,
			"count":202,
			"type":"VEC2"
		},
		{
			"bufferView":15,
			"componentType":5123,
			"count":372,
			"type":"SCALAR"
		},
		{
			"bufferView":16,
			"componentType":5126,
			"count":200,
			"max":[
				0.04950454831123352,
				0.06815556436777115,
				0.042944446206092834
			],
			"min":[
				0.00315944105386734,
				-0.0012995696160942316,
				-0.04265137016773224
			],
			"type":"VEC3"
		},
		{
			"bufferView":17,
			"componentType":5126,
			"count":200,
			"type":"VEC3"
		},
		{
			"bufferView":18,
			"componentType":5126,
			"count":200,
			"type":"VEC2"
		},
		{
			"bufferView":19,
			"componentType":5123,
			"count":372,
			"type":"SCALAR"
		}
	],
	"bufferViews":[
		{
			"buffer":0,
			"byteLength":192,
			"byteOffset":0,
			"target":34962
		},
		{
			"buffer":0,
			"byteLength":192,
			"byteOffset":192,
			"target":34962
		},
		{
			"buffer":0,
			"byteLength":128,
			"byteOffset":384,
			"target":34962
		},
		{
			"buffer":0,
			"byteLength":36,
			"byteOffset":512,
			"target":34963
		},
		{
			"buffer":0,
			"byteLength":2424,
			"byteOffset":548,
			"target":34962
		},
		{
			"buffer":0,
			"byteLength":2424,
			"byteOffset":2972,
			"target":34962
		},
		{
			"buffer":0,
			"byteLength":1616,
			"byteOffset":5396,
			"target":34962
		},
		{
			"buffer":0,
			"byteLength":744,
			"byteOffset":7012,
			"target":34963
		},
		{
			"buffer":0,
			"byteLength":2424,
			"byteOffset":7756,
			"target":34962
		},
		{
			"buffer":0,
			"byteLength":2424,
			"byteOffset":10180,
			"target":34962
		},
		{
			"buffer":0,
			"byteLength":1616,
			"byteOffset":12604,
			"target":34962
		},
		{
			"buffer":0,
			"byteLength":744,
			"byteOffset":14220,
			"target":34963
		},
		{
			"buffer":0,
			"byteLength":2424,
			"byteOffset":14964,
			"target":34962
		},
		{
			"buffer":0,
			"byteLength":2424,
			"byteOffset":17388,
			"target":34962
		},
		{
			"buffer":0,
			"byteLength":1616,
			"byteOffset":19812,
			"target":34962
		},
		{
			"buffer":0,
			"byteLength":744,
			"byteOffset":21428,
			"target":34963
		},
		{
			"buffer":0,
			"byteLength":2400,
			"byteOffset":22172,
			"target":34962
		},
		{
			"buffer":0,
			"byteLength":2400,
			"byteOffset":24572,
			"target":34962
		},
		{
			"buffer":0,
			"byteLength":1600,
			"byteOffset":26972,
			"target":34962
		},
		{
			"buffer":0,
			"byteLength":744,
			"byteOffset":28572,
			"target":34963
		}
	],
	"buffers":[
		{
			"byteLength":29316,
			"uri":"Logo.bin"
		}
	]
}
